<svg xmlns="http://www.w3.org/2000/svg" width="1584" height="396" viewBox="0 0 1584 396">
  <defs>
    <!-- Gradient for accents (light theme: gold to blue) -->
    <linearGradient id="accentGradient" x1="0%" y1="0%" x2="100%" y2="100%">
      <stop offset="0%" style="stop-color:#C9A227;stop-opacity:1" />
      <stop offset="100%" style="stop-color:#1E3A8A;stop-opacity:1" />
    </linearGradient>
    
    <!-- Subtle background glow -->
    <radialGradient id="bgGlow" cx="25%" cy="50%" r="55%">
      <stop offset="0%" style="stop-color:#C9A227;stop-opacity:0.08" />
      <stop offset="100%" style="stop-color:#f5f5f0;stop-opacity:0" />
    </radialGradient>
    
    <!-- Secondary glow -->
    <radialGradient id="bgGlow2" cx="75%" cy="60%" r="40%">
      <stop offset="0%" style="stop-color:#1E3A8A;stop-opacity:0.03" />
      <stop offset="100%" style="stop-color:#f5f5f0;stop-opacity:0" />
    </radialGradient>
  </defs>
  
  <!-- Background -->
  <rect width="1584" height="396" fill="#f5f5f0"/>
  
  <!-- Subtle glow effects -->
  <rect width="1584" height="396" fill="url(#bgGlow)"/>
  <rect width="1584" height="396" fill="url(#bgGlow2)"/>
  
  <!-- Decorative shapes (left side, floating elements) -->
  <!-- Circles -->
  <circle cx="80" cy="60" r="20" fill="none" stroke="#C9A227" stroke-width="1" opacity="0.3"/>
  <circle cx="200" cy="320" r="30" fill="none" stroke="#1E3A8A" stroke-width="1" opacity="0.2"/>
  <circle cx="120" cy="200" r="15" fill="none" stroke="#C9A227" stroke-width="1" opacity="0.18"/>
  
  <!-- Squares (rotated) -->
  <rect x="300" y="50" width="25" height="25" fill="none" stroke="#1E3A8A" stroke-width="1" opacity="0.2" transform="rotate(45 312.5 62.5)"/>
  <rect x="60" y="300" width="18" height="18" fill="none" stroke="#C9A227" stroke-width="1" opacity="0.2" transform="rotate(45 69 309)"/>
  
  <!-- Triangles -->
  <polygon points="250,150 265,125 280,150" fill="none" stroke="#C9A227" stroke-width="1" opacity="0.25"/>
  <polygon points="150,350 165,325 180,350" fill="none" stroke="#1E3A8A" stroke-width="1" opacity="0.2"/>
  
  <!-- Sparkles -->
  <path d="M350,100 L353,112 L365,115 L353,118 L350,130 L347,118 L335,115 L347,112 Z" fill="#C9A227" opacity="0.35"/>
  <path d="M100,140 L102,148 L110,150 L102,152 L100,160 L98,152 L90,150 L98,148 Z" fill="#1E3A8A" opacity="0.25"/>
  
  <!-- Accent line at bottom -->
  <rect x="0" y="392" width="1584" height="4" fill="url(#accentGradient)" opacity="0.85"/>
  
  <!-- Text content (right-aligned, ~600px from right) -->
  <g>
    <!-- Main text -->
    <text x="1050" y="170" font-family="'Space Grotesk', -apple-system, BlinkMacSystemFont, 'Segoe UI', sans-serif" font-size="38" font-weight="700" fill="#1c1917" letter-spacing="-0.5" text-anchor="end">Ideando soluciones,</text>
    <text x="1050" y="220" font-family="'Space Grotesk', -apple-system, BlinkMacSystemFont, 'Segoe UI', sans-serif" font-size="38" font-weight="700" fill="#1c1917" letter-spacing="-0.5" text-anchor="end">programando realidades.</text>
    
    <!-- Divider line -->
    <rect x="830" y="245" width="100" height="2" fill="url(#accentGradient)" opacity="0.5"/>
    
    <!-- URL -->
    <text x="1050" y="280" font-family="'Space Grotesk', -apple-system, BlinkMacSystemFont, 'Segoe UI', sans-serif" font-size="16" font-weight="400" fill="#57534e" text-anchor="end" letter-spacing="0.5">https://kevin-villatoro-dev.github.io/</text>
  </g>
  
  <!-- KAVA brand mark (subtle, top right) -->
  <g opacity="0.5">
    <text x="1530" y="40" font-family="monospace" font-size="16" font-weight="bold" fill="url(#accentGradient)" text-anchor="end">KAVA</text>
  </g>
</svg>
