<svg xmlns="http://www.w3.org/2000/svg" width="800" height="500" viewBox="0 0 800 500">
  <defs>
    <linearGradient id="bg" x1="0%" y1="0%" x2="100%" y2="100%">
      <stop offset="0%" style="stop-color:#0d1117"/>
      <stop offset="100%" style="stop-color:#161b22"/>
    </linearGradient>
    <linearGradient id="green" x1="0%" y1="0%" x2="0%" y2="100%">
      <stop offset="0%" style="stop-color:#00ff88"/>
      <stop offset="100%" style="stop-color:#00cc6a"/>
    </linearGradient>
    <linearGradient id="red" x1="0%" y1="0%" x2="0%" y2="100%">
      <stop offset="0%" style="stop-color:#ff4444"/>
      <stop offset="100%" style="stop-color:#cc0000"/>
    </linearGradient>
  </defs>
  <rect width="800" height="500" fill="url(#bg)"/>
  <rect x="50" y="30" width="200" height="40" rx="6" fill="#21262d"/>
  <text x="70" y="56" font-family="monospace" font-size="14" fill="#ffffff" opacity="0.8">CryptoTracker</text>
  <rect x="50" y="90" width="700" height="380" rx="12" fill="#21262d"/>
  <rect x="70" y="110" width="320" height="180" rx="8" fill="#0d1117"/>
  <polyline points="70,250 120,200 170,230 220,160 270,190 320,140 370,170" fill="none" stroke="url(#green)" stroke-width="3"/>
  <rect x="410" y="110" width="320" height="85" rx="8" fill="#0d1117"/>
  <rect x="430" y="130" width="60" height="45" rx="4" fill="url(#green)" opacity="0.2"/>
  <text x="460" y="158" font-family="monospace" font-size="11" fill="#00ff88" text-anchor="middle">BTC</text>
  <rect x="510" y="130" width="60" height="45" rx="4" fill="url(#red)" opacity="0.2"/>
  <text x="540" y="158" font-family="monospace" font-size="11" fill="#ff4444" text-anchor="middle">ETH</text>
  <rect x="590" y="130" width="60" height="45" rx="4" fill="url(#green)" opacity="0.2"/>
  <text x="620" y="158" font-family="monospace" font-size="11" fill="#00ff88" text-anchor="middle">SOL</text>
  <rect x="410" y="210" width="320" height="85" rx="8" fill="#0d1117"/>
  <rect x="430" y="230" width="280" height="12" rx="3" fill="#ffffff" opacity="0.1"/>
  <rect x="430" y="250" width="200" height="12" rx="3" fill="#ffffff" opacity="0.1"/>
  <rect x="430" y="270" width="240" height="12" rx="3" fill="#ffffff" opacity="0.1"/>
  <rect x="70" y="310" width="660" height="140" rx="8" fill="#0d1117"/>
  <rect x="90" y="330" width="100" height="100" rx="6" fill="#21262d"/>
  <rect x="210" y="330" width="100" height="100" rx="6" fill="#21262d"/>
  <rect x="330" y="330" width="100" height="100" rx="6" fill="#21262d"/>
  <rect x="450" y="330" width="100" height="100" rx="6" fill="#21262d"/>
  <rect x="570" y="330" width="100" height="100" rx="6" fill="#21262d"/>
  <text x="400" y="490" font-family="monospace" font-size="12" fill="#00ff88" text-anchor="middle" opacity="0.5">Real-time Crypto Dashboard</text>
</svg>