<svg xmlns="http://www.w3.org/2000/svg" width="800" height="500" viewBox="0 0 800 500">
  <defs>
    <linearGradient id="bg" x1="0%" y1="0%" x2="100%" y2="100%">
      <stop offset="0%" style="stop-color:#1a1a1a"/>
      <stop offset="100%" style="stop-color:#2d2d2d"/>
    </linearGradient>
    <linearGradient id="lock" x1="0%" y1="0%" x2="0%" y2="100%">
      <stop offset="0%" style="stop-color:#ff6b6b"/>
      <stop offset="100%" style="stop-color:#ee5a5a"/>
    </linearGradient>
    <pattern id="dots" width="20" height="20" patternUnits="userSpaceOnUse">
      <circle cx="10" cy="10" r="1" fill="#ffffff" opacity="0.05"/>
    </pattern>
  </defs>
  <rect width="800" height="500" fill="url(#bg)"/>
  <rect width="800" height="500" fill="url(#dots)"/>
  <rect x="150" y="100" width="180" height="120" rx="12" fill="#2d2d2d" stroke="#444444" stroke-width="1"/>
  <rect x="170" y="120" width="140" height="16" rx="4" fill="#ffffff" opacity="0.1"/>
  <rect x="170" y="145" width="100" height="12" rx="3" fill="#ffffff" opacity="0.06"/>
  <rect x="170" y="170" width="120" height="30" rx="6" fill="#ffffff" opacity="0.08"/>
  <rect x="310" y="100" width="180" height="120" rx="12" fill="#2d2d2d" stroke="#444444" stroke-width="1"/>
  <rect x="330" y="120" width="140" height="16" rx="4" fill="#ffffff" opacity="0.1"/>
  <rect x="330" y="145" width="100" height="12" rx="3" fill="#ffffff" opacity="0.06"/>
  <rect x="330" y="170" width="120" height="30" rx="6" fill="#ffffff" opacity="0.08"/>
  <rect x="470" y="100" width="180" height="120" rx="12" fill="#2d2d2d" stroke="#444444" stroke-width="1"/>
  <rect x="490" y="120" width="140" height="16" rx="4" fill="#ffffff" opacity="0.1"/>
  <rect x="490" y="145" width="100" height="12" rx="3" fill="#ffffff" opacity="0.06"/>
  <rect x="490" y="170" width="120" height="30" rx="6" fill="#ffffff" opacity="0.08"/>
  <rect x="250" y="260" width="300" height="150" rx="16" fill="#2d2d2d" stroke="#444444" stroke-width="1"/>
  <rect x="290" y="220" width="220" height="80" rx="10" fill="none" stroke="#444444" stroke-width="2"/>
  <circle cx="400" cy="290" r="25" fill="none" stroke="url(#lock)" stroke-width="3"/>
  <rect x="390" y="300" width="20" height="30" rx="3" fill="url(#lock)"/>
  <text x="400" y="440" font-family="monospace" font-size="16" fill="#ffffff" opacity="0.4" text-anchor="middle">CONFIDENTIAL</text>
  <text x="400" y="470" font-family="monospace" font-size="12" fill="#ff6b6b" opacity="0.6" text-anchor="middle">Design System - Internal Project</text>
  <rect x="100" y="350" width="120" height="60" rx="6" fill="#ffffff" opacity="0.03"/>
  <rect x="580" y="350" width="120" height="60" rx="6" fill="#ffffff" opacity="0.03"/>
</svg>