<svg xmlns="http://www.w3.org/2000/svg" width="800" height="500" viewBox="0 0 800 500">
  <defs>
    <linearGradient id="bg" x1="0%" y1="0%" x2="100%" y2="100%">
      <stop offset="0%" style="stop-color:#1e1e3f"/>
      <stop offset="100%" style="stop-color:#2d1b69"/>
    </linearGradient>
    <linearGradient id="purple" x1="0%" y1="0%" x2="100%" y2="0%">
      <stop offset="0%" style="stop-color:#a855f7"/>
      <stop offset="100%" style="stop-color:#7c3aed"/>
    </linearGradient>
  </defs>
  <rect width="800" height="500" fill="url(#bg)"/>
  <rect x="50" y="40" width="180" height="35" rx="6" fill="#ffffff" opacity="0.1"/>
  <text x="70" y="63" font-family="serif" font-size="16" fill="#ffffff" opacity="0.9">DevBlog</text>
  <rect x="50" y="100" width="450" height="360" rx="12" fill="#ffffff" opacity="0.05"/>
  <rect x="70" y="120" width="410" height="30" rx="4" fill="#ffffff" opacity="0.15"/>
  <rect x="70" y="170" width="410" height="180" rx="8" fill="#ffffff" opacity="0.08"/>
  <rect x="90" y="190" width="200" height="20" rx="4" fill="url(#purple)" opacity="0.4"/>
  <rect x="90" y="225" width="370" height="14" rx="3" fill="#ffffff" opacity="0.15"/>
  <rect x="90" y="250" width="350" height="14" rx="3" fill="#ffffff" opacity="0.15"/>
  <rect x="90" y="275" width="380" height="14" rx="3" fill="#ffffff" opacity="0.15"/>
  <rect x="90" y="300" width="300" height="14" rx="3" fill="#ffffff" opacity="0.15"/>
  <rect x="70" y="370" width="120" height="35" rx="17" fill="url(#purple)"/>
  <text x="130" y="393" font-family="sans-serif" font-size="12" fill="#ffffff" text-anchor="middle">Read More</text>
  <rect x="530" y="100" width="220" height="360" rx="12" fill="#ffffff" opacity="0.05"/>
  <rect x="550" y="120" width="180" height="25" rx="4" fill="#ffffff" opacity="0.15"/>
  <rect x="550" y="160" width="180" height="100" rx="6" fill="#ffffff" opacity="0.08"/>
  <rect x="550" y="275" width="140" height="14" rx="3" fill="#ffffff" opacity="0.15"/>
  <rect x="550" y="300" width="160" height="14" rx="3" fill="#ffffff" opacity="0.15"/>
  <rect x="550" y="325" width="120" height="14" rx="3" fill="#ffffff" opacity="0.15"/>
  <rect x="550" y="370" width="100" height="30" rx="6" fill="url(#purple)" opacity="0.3"/>
  <text x="400" y="490" font-family="serif" font-size="12" fill="#a855f7" text-anchor="middle" opacity="0.5">MDX Powered Blog</text>
</svg>