<svg xmlns="http://www.w3.org/2000/svg" viewBox="0 0 800 500">
  <defs>
    <linearGradient id="bg" x1="0%" y1="0%" x2="100%" y2="100%">
      <stop offset="0%" style="stop-color:#f5f5f5"/>
      <stop offset="100%" style="stop-color:#e8e8e8"/>
    </linearGradient>
  </defs>
  <rect width="800" height="500" fill="url(#bg)"/>
  
  <!-- Left side: Laravel Admin Panel -->
  <g transform="translate(0, 0)">
    <!-- Admin window -->
    <rect x="20" y="40" width="370" height="420" rx="6" fill="#1a1a2e" stroke="#2d2d44" stroke-width="1"/>
    <!-- Title bar -->
    <rect x="20" y="40" width="370" height="30" rx="6" fill="#0f0f1a"/>
    <rect x="20" y="60" width="370" height="10" fill="#0f0f1a"/>
    <circle cx="40" cy="55" r="4" fill="#ff5f57"/>
    <circle cx="55" cy="55" r="4" fill="#ffbd2e"/>
    <circle cx="70" cy="55" r="4" fill="#28c840"/>
    <text x="205" y="58" fill="#6b7280" font-family="monospace" font-size="10" text-anchor="middle">Laravel Admin</text>
    
    <!-- Sidebar -->
    <rect x="20" y="70" width="80" height="390" fill="#0d1117"/>
    <rect x="30" y="85" width="60" height="28" rx="4" fill="#1f6feb" opacity="0.9"/>
    <text x="60" y="103" fill="#ffffff" font-family="system-ui" font-size="9" text-anchor="middle">Dashboard</text>
    <rect x="30" y="125" width="60" height="28" rx="4" fill="transparent"/>
    <text x="60" y="143" fill="#8b949e" font-family="system-ui" font-size="9" text-anchor="middle">Productos</text>
    <rect x="30" y="165" width="60" height="28" rx="4" fill="transparent"/>
    <text x="60" y="183" fill="#8b949e" font-family="system-ui" font-size="9" text-anchor="middle">Pedidos</text>
    <rect x="30" y="205" width="60" height="28" rx="4" fill="transparent"/>
    <text x="60" y="223" fill="#8b949e" font-family="system-ui" font-size="9" text-anchor="middle">Clientes</text>
    <rect x="30" y="245" width="60" height="28" rx="4" fill="transparent"/>
    <text x="60" y="263" fill="#8b949e" font-family="system-ui" font-size="9" text-anchor="middle">Reportes</text>
    
    <!-- Main content area -->
    <rect x="100" y="70" width="290" height="390" fill="#ffffff"/>
    <!-- Stats cards -->
    <rect x="115" y="85" width="80" height="55" rx="4" fill="#f0fdf4" stroke="#bbf7d0"/>
    <text x="155" y="105" fill="#166534" font-family="system-ui" font-size="8" text-anchor="middle">Ventas Hoy</text>
    <text x="155" y="125" fill="#15803d" font-family="system-ui" font-size="14" text-anchor="middle" font-weight="bold">$1,240</text>
    <rect x="205" y="85" width="80" height="55" rx="4" fill="#eff6ff" stroke="#bfdbfe"/>
    <text x="245" y="105" fill="#1e40af" font-family="system-ui" font-size="8" text-anchor="middle">Pedidos</text>
    <text x="245" y="125" fill="#1d4ed8" font-family="system-ui" font-size="14" text-anchor="middle" font-weight="bold">23</text>
    <rect x="295" y="85" width="80" height="55" rx="4" fill="#fefce8" stroke="#fde68a"/>
    <text x="335" y="105" fill="#854d0e" font-family="system-ui" font-size="8" text-anchor="middle">Productos</text>
    <text x="335" y="125" fill="#a16207" font-family="system-ui" font-size="14" text-anchor="middle" font-weight="bold">156</text>
    
    <!-- Product table -->
    <rect x="115" y="155" width="260" height="25" rx="2" fill="#f8fafc"/>
    <text x="125" y="172" fill="#64748b" font-family="system-ui" font-size="8">Producto</text>
    <text x="220" y="172" fill="#64748b" font-family="system-ui" font-size="8">Precio</text>
    <text x="280" y="172" fill="#64748b" font-family="system-ui" font-size="8">Stock</text>
    <text x="340" y="172" fill="#64748b" font-family="system-ui" font-size="8">Estado</text>
    <line x1="115" y1="185" x2="375" y2="185" stroke="#e2e8f0"/>
    <!-- Table rows -->
    <text x="125" y="205" fill="#1e293b" font-family="system-ui" font-size="9">Laptop Pro 16"</text>
    <text x="220" y="205" fill="#1e293b" font-family="system-ui" font-size="9">$1,299</text>
    <text x="285" y="205" fill="#1e293b" font-family="system-ui" font-size="9">24</text>
    <rect x="330" y="195" width="45" height="16" rx="8" fill="#dcfce7"/>
    <text x="352" y="207" fill="#166534" font-family="system-ui" font-size="7" text-anchor="middle">Activo</text>
    <line x1="115" y1="215" x2="375" y2="215" stroke="#f1f5f9"/>
    <text x="125" y="235" fill="#1e293b" font-family="system-ui" font-size="9">Mouse Inalámbrico</text>
    <text x="220" y="235" fill="#1e293b" font-family="system-ui" font-size="9">$49</text>
    <text x="285" y="235" fill="#1e293b" font-family="system-ui" font-size="9">142</text>
    <rect x="330" y="225" width="45" height="16" rx="8" fill="#dcfce7"/>
    <text x="352" y="237" fill="#166534" font-family="system-ui" font-size="7" text-anchor="middle">Activo</text>
    <line x1="115" y1="245" x2="375" y2="245" stroke="#f1f5f9"/>
    <text x="125" y="265" fill="#1e293b" font-family="system-ui" font-size="9">Teclado Mecánico</text>
    <text x="220" y="265" fill="#1e293b" font-family="system-ui" font-size="9">$89</text>
    <text x="285" y="265" fill="#1e293b" font-family="system-ui" font-size="9">67</text>
    <rect x="330" y="255" width="45" height="16" rx="8" fill="#fef9c3"/>
    <text x="352" y="267" fill="#854d0e" font-family="system-ui" font-size="7" text-anchor="middle">Bajo</text>
    
    <!-- Laravel badge -->
    <rect x="115" y="430" width="70" height="20" rx="4" fill="#ff2d20" opacity="0.9"/>
    <text x="150" y="444" fill="#ffffff" font-family="monospace" font-size="9" text-anchor="middle" font-weight="bold">Laravel</text>
  </g>
  
  <!-- Right side: React Storefront -->
  <g transform="translate(410, 0)">
    <!-- Store window -->
    <rect x="0" y="40" width="370" height="420" rx="6" fill="#ffffff" stroke="#e5e7eb" stroke-width="1"/>
    <!-- Header -->
    <rect x="0" y="40" width="370" height="50" fill="#111827"/>
    <text x="20" y="70" fill="#ffffff" font-family="system-ui" font-size="14" font-weight="bold">TechStore</text>
    <text x="300" y="70" fill="#9ca3af" font-family="system-ui" font-size="10">🛒 3</text>
    
    <!-- Hero banner -->
    <rect x="0" y="90" width="370" height="80" fill="linear-gradient(135deg, #667eea 0%, #764ba2 100%)"/>
    <rect x="0" y="90" width="370" height="80" fill="#6366f1"/>
    <text x="185" y="125" fill="#ffffff" font-family="system-ui" font-size="16" text-anchor="middle" font-weight="bold">Ofertas de Temporada</text>
    <text x="185" y="145" fill="#e0e7ff" font-family="system-ui" font-size="10" text-anchor="middle">Hasta 40% de descuento</text>
    
    <!-- Product grid -->
    <rect x="15" y="185" width="105" height="130" rx="6" fill="#f9fafb" stroke="#e5e7eb"/>
    <rect x="25" y="195" width="85" height="60" rx="4" fill="#e5e7eb"/>
    <text x="67" y="230" fill="#9ca3af" font-family="system-ui" font-size="20" text-anchor="middle">💻</text>
    <text x="25" y="275" fill="#111827" font-family="system-ui" font-size="9">Laptop Pro</text>
    <text x="25" y="290" fill="#6366f1" font-family="system-ui" font-size="10" font-weight="bold">$1,299</text>
    <text x="25" y="305" fill="#9ca3af" font-family="system-ui" font-size="8" text-decoration="line-through">$1,599</text>
    
    <rect x="130" y="185" width="105" height="130" rx="6" fill="#f9fafb" stroke="#e5e7eb"/>
    <rect x="140" y="195" width="85" height="60" rx="4" fill="#e5e7eb"/>
    <text x="182" y="230" fill="#9ca3af" font-family="system-ui" font-size="20" text-anchor="middle">🖱️</text>
    <text x="140" y="275" fill="#111827" font-family="system-ui" font-size="9">Mouse Pro</text>
    <text x="140" y="290" fill="#6366f1" font-family="system-ui" font-size="10" font-weight="bold">$49</text>
    <text x="140" y="305" fill="#9ca3af" font-family="system-ui" font-size="8" text-decoration="line-through">$79</text>
    
    <rect x="245" y="185" width="105" height="130" rx="6" fill="#f9fafb" stroke="#e5e7eb"/>
    <rect x="255" y="195" width="85" height="60" rx="4" fill="#e5e7eb"/>
    <text x="297" y="230" fill="#9ca3af" font-family="system-ui" font-size="20" text-anchor="middle">⌨️</text>
    <text x="255" y="275" fill="#111827" font-family="system-ui" font-size="9">Teclado RGB</text>
    <text x="255" y="290" fill="#6366f1" font-family="system-ui" font-size="10" font-weight="bold">$89</text>
    <text x="255" y="305" fill="#9ca3af" font-family="system-ui" font-size="8" text-decoration="line-through">$129</text>
    
    <!-- Add to cart buttons -->
    <rect x="25" y="325" width="85" height="24" rx="4" fill="#6366f1"/>
    <text x="67" y="341" fill="#ffffff" font-family="system-ui" font-size="8" text-anchor="middle">Agregar</text>
    <rect x="140" y="325" width="85" height="24" rx="4" fill="#6366f1"/>
    <text x="182" y="341" fill="#ffffff" font-family="system-ui" font-size="8" text-anchor="middle">Agregar</text>
    <rect x="255" y="325" width="85" height="24" rx="4" fill="#6366f1"/>
    <text x="297" y="341" fill="#ffffff" font-family="system-ui" font-size="8" text-anchor="middle">Agregar</text>
    
    <!-- Footer -->
    <rect x="0" y="410" width="370" height="50" fill="#f9fafb" stroke="#e5e7eb" stroke-width="1"/>
    <text x="185" y="440" fill="#6b7280" font-family="system-ui" font-size="9" text-anchor="middle">© 2024 TechStore - built with React</text>
    
    <!-- React badge -->
    <rect x="285" y="430" width="60" height="20" rx="4" fill="#61dafb" opacity="0.9"/>
    <text x="315" y="444" fill="#000000" font-family="monospace" font-size="9" text-anchor="middle" font-weight="bold">React</text>
  </g>
  
  <!-- Connection arrow -->
  <g transform="translate(390, 250)">
    <line x1="0" y1="0" width="20" height="0" stroke="#6b7280" stroke-width="2" stroke-dasharray="4,3"/>
    <polygon points="18,-5 28,0 18,5" fill="#6b7280"/>
  </g>
</svg>
