<svg xmlns="http://www.w3.org/2000/svg" width="800" height="500" viewBox="0 0 800 500">
  <defs>
    <linearGradient id="bg" x1="0%" y1="0%" x2="100%" y2="100%">
      <stop offset="0%" style="stop-color:#1a1a2e"/>
      <stop offset="100%" style="stop-color:#16213e"/>
    </linearGradient>
    <linearGradient id="accent" x1="0%" y1="0%" x2="100%" y2="0%">
      <stop offset="0%" style="stop-color:#00d4ff"/>
      <stop offset="100%" style="stop-color:#0099cc"/>
    </linearGradient>
  </defs>
  <rect width="800" height="500" fill="url(#bg)"/>
  <rect x="50" y="50" width="700" height="60" rx="8" fill="#0f3460" opacity="0.5"/>
  <rect x="70" y="65" width="120" height="30" rx="4" fill="url(#accent)"/>
  <rect x="210" y="72" width="80" height="16" rx="3" fill="#ffffff" opacity="0.3"/>
  <rect x="310" y="72" width="80" height="16" rx="3" fill="#ffffff" opacity="0.3"/>
  <rect x="410" y="72" width="80" height="16" rx="3" fill="#ffffff" opacity="0.3"/>
  <rect x="50" y="140" width="340" height="310" rx="12" fill="#0f3460" opacity="0.3"/>
  <rect x="70" y="160" width="300" height="20" rx="4" fill="#ffffff" opacity="0.2"/>
  <rect x="70" y="200" width="200" height="16" rx="3" fill="#ffffff" opacity="0.15"/>
  <rect x="70" y="240" width="250" height="16" rx="3" fill="#ffffff" opacity="0.15"/>
  <rect x="70" y="280" width="180" height="16" rx="3" fill="#ffffff" opacity="0.15"/>
  <rect x="70" y="320" width="120" height="40" rx="20" fill="url(#accent)"/>
  <rect x="410" y="140" width="340" height="150" rx="12" fill="#0f3460" opacity="0.3"/>
  <rect x="430" y="165" width="100" height="100" rx="8" fill="url(#accent)" opacity="0.3"/>
  <rect x="550" y="165" width="170" height="20" rx="4" fill="#ffffff" opacity="0.2"/>
  <rect x="550" y="200" width="140" height="16" rx="3" fill="#ffffff" opacity="0.15"/>
  <rect x="550" y="230" width="160" height="16" rx="3" fill="#ffffff" opacity="0.15"/>
  <rect x="410" y="310" width="340" height="140" rx="12" fill="#0f3460" opacity="0.3"/>
  <rect x="430" y="335" width="80" height="80" rx="8" fill="#ff6b6b" opacity="0.3"/>
  <rect x="530" y="335" width="80" height="80" rx="8" fill="#4ecdc4" opacity="0.3"/>
  <rect x="630" y="335" width="80" height="80" rx="8" fill="#ffe66d" opacity="0.3"/>
  <text x="400" y="480" font-family="monospace" font-size="14" fill="#00d4ff" text-anchor="middle" opacity="0.5">TaskFlow - Project Management</text>
</svg>