<svg xmlns="http://www.w3.org/2000/svg" width="800" height="500" viewBox="0 0 800 500">
  <defs>
    <linearGradient id="bg" x1="0%" y1="0%" x2="100%" y2="100%">
      <stop offset="0%" style="stop-color:#0c1445"/>
      <stop offset="100%" style="stop-color:#1a237e"/>
    </linearGradient>
    <linearGradient id="sun" x1="0%" y1="0%" x2="0%" y2="100%">
      <stop offset="0%" style="stop-color:#ffd54f"/>
      <stop offset="100%" style="stop-color:#ffb300"/>
    </linearGradient>
  </defs>
  <rect width="800" height="500" fill="url(#bg)"/>
  <circle cx="650" cy="120" r="50" fill="url(#sun)" opacity="0.9"/>
  <circle cx="620" cy="100" r="35" fill="#ffffff" opacity="0.2"/>
  <circle cx="680" cy="110" r="25" fill="#ffffff" opacity="0.15"/>
  <ellipse cx="600" cy="150" rx="60" ry="30" fill="#ffffff" opacity="0.15"/>
  <ellipse cx="650" cy="160" rx="50" ry="25" fill="#ffffff" opacity="0.1"/>
  <rect x="50" y="50" width="300" height="200" rx="16" fill="#ffffff" opacity="0.08"/>
  <text x="70" y="85" font-family="sans-serif" font-size="14" fill="#ffffff" opacity="0.6">Ciudad de México</text>
  <text x="70" y="160" font-family="sans-serif" font-size="64" fill="#ffffff" opacity="0.9">24°</text>
  <text x="200" y="160" font-family="sans-serif" font-size="18" fill="#ffffff" opacity="0.5">Parcial nublado</text>
  <rect x="70" y="180" width="80" height="25" rx="12" fill="#ffffff" opacity="0.1"/>
  <text x="110" y="197" font-family="sans-serif" font-size="11" fill="#ffffff" opacity="0.7" text-anchor="middle">H: 28° L: 18°</text>
  <rect x="380" y="50" width="370" height="200" rx="16" fill="#ffffff" opacity="0.08"/>
  <text x="400" y="80" font-family="sans-serif" font-size="13" fill="#ffffff" opacity="0.5">Pronóstico 7 días</text>
  <rect x="400" y="100" width="45" height="130" rx="8" fill="#ffffff" opacity="0.1"/>
  <text x="422" y="120" font-family="sans-serif" font-size="11" fill="#ffffff" opacity="0.6" text-anchor="middle">Lun</text>
  <text x="422" y="170" font-family="sans-serif" font-size="16" fill="#ffffff" opacity="0.8" text-anchor="middle">22°</text>
  <rect x="460" y="100" width="45" height="130" rx="8" fill="#ffffff" opacity="0.1"/>
  <text x="482" y="120" font-family="sans-serif" font-size="11" fill="#ffffff" opacity="0.6" text-anchor="middle">Mar</text>
  <text x="482" y="170" font-family="sans-serif" font-size="16" fill="#ffffff" opacity="0.8" text-anchor="middle">25°</text>
  <rect x="520" y="100" width="45" height="130" rx="8" fill="#ffffff" opacity="0.1"/>
  <text x="542" y="120" font-family="sans-serif" font-size="11" fill="#ffffff" opacity="0.6" text-anchor="middle">Mié</text>
  <text x="542" y="170" font-family="sans-serif" font-size="16" fill="#ffffff" opacity="0.8" text-anchor="middle">19°</text>
  <rect x="580" y="100" width="45" height="130" rx="8" fill="#ffffff" opacity="0.1"/>
  <text x="602" y="120" font-family="sans-serif" font-size="11" fill="#ffffff" opacity="0.6" text-anchor="middle">Jue</text>
  <text x="602" y="170" font-family="sans-serif" font-size="16" fill="#ffffff" opacity="0.8" text-anchor="middle">21°</text>
  <rect x="640" y="100" width="45" height="130" rx="8" fill="#ffffff" opacity="0.15"/>
  <text x="662" y="120" font-family="sans-serif" font-size="11" fill="#ffd54f" opacity="0.9" text-anchor="middle">Vie</text>
  <text x="662" y="170" font-family="sans-serif" font-size="16" fill="#ffffff" opacity="0.9" text-anchor="middle">27°</text>
  <rect x="50" y="280" width="700" height="180" rx="16" fill="#ffffff" opacity="0.06"/>
  <text x="70" y="310" font-family="sans-serif" font-size="13" fill="#ffffff" opacity="0.5">Detalle por hora</text>
  <polyline points="90,380 150,360 210,370 270,340 330,350 390,320 450,330 510,300 570,310 630,290 690,300" fill="none" stroke="#64b5f6" stroke-width="3" stroke-linecap="round"/>
  <text x="400" y="490" font-family="sans-serif" font-size="12" fill="#64b5f6" text-anchor="middle" opacity="0.5">WeatherApp - 7 Day Forecast</text>
</svg>